# xmcd
#
# Track frame offsets:
#	150
#	11466
#	23068
#	34466
#	44274
#	54626
#	67336
#	78279
#	91390
#	100196
#	112620
#	124887
#
# Disc length: 1834 seconds
#
# Revision: 0
# Processed by: cddbd v1.5.2PL0 Copyright (c) Steve Scherf et al.
# Submitted via: EasyCDDAExtractor 16.0.1.1
#
DISCID=9607280c
DTITLE=Little Jimmy Dickens - May The Bird Of Paradise Fly Up Your Noise
DYEAR=1965
DGENRE=Country
TTITLE0=I Can't Get Over Me (Not Gettin' Over You)
TTITLE1=My Eyes Are Jealous
TTITLE2=Honky Tonk Troubles
TTITLE3=Collection Of Failures
TTITLE4=Call Him Me
TTITLE5=Twice The Fool
TTITLE6=May The Bird Of Paradise Fly Up Your Nose
TTITLE7=The Back Of My Hand
TTITLE8=He Knocked Me Right Out Of The Box
TTITLE9=Make Me An Offer
TTITLE10=Half-Way Loved
TTITLE11=A Rose From A Bride's Bouquet
EXTD=
EXTT0=
EXTT1=
EXTT2=
EXTT3=
EXTT4=
EXTT5=
EXTT6=
EXTT7=
EXTT8=
EXTT9=
EXTT10=
EXTT11=
PLAYORDER=
